<?xml version="1.0" encoding="UTF-8" standalone="no"?>
<svg
   width="42.137295mm"
   height="28.633308mm"
   viewBox="0 0 42.137295 28.633308"
   version="1.1"
   id="svg8"
   inkscape:version="1.1.2 (b8e25be8, 2022-02-05)"
   sodipodi:docname="IntegerbookLogoTextPath.svg"
   xmlns:inkscape="http://www.inkscape.org/namespaces/inkscape"
   xmlns:sodipodi="http://sodipodi.sourceforge.net/DTD/sodipodi-0.dtd"
   xmlns="http://www.w3.org/2000/svg"
   xmlns:svg="http://www.w3.org/2000/svg"
   xmlns:rdf="http://www.w3.org/1999/02/22-rdf-syntax-ns#"
   xmlns:cc="http://creativecommons.org/ns#"
   xmlns:dc="http://purl.org/dc/elements/1.1/">
  <defs
     id="defs2" />
  <sodipodi:namedview
     id="base"
     pagecolor="#ffffff"
     bordercolor="#666666"
     borderopacity="1.0"
     inkscape:pageopacity="0.0"
     inkscape:pageshadow="2"
     inkscape:zoom="1.9235905"
     inkscape:cx="96.174318"
     inkscape:cy="77.979177"
     inkscape:document-units="mm"
     inkscape:current-layer="text2329"
     inkscape:document-rotation="0"
     showgrid="false"
     showborder="true"
     inkscape:pagecheckerboard="0"
     inkscape:window-width="1280"
     inkscape:window-height="800"
     inkscape:window-x="0"
     inkscape:window-y="0"
     inkscape:window-maximized="0"
     fit-margin-top="0"
     fit-margin-left="0"
     fit-margin-right="0"
     fit-margin-bottom="0"
     inkscape:snap-global="false"
     units="mm" />
  <metadata
     id="metadata5">
    <rdf:RDF>
      <cc:Work
         rdf:about="">
        <dc:format>image/svg+xml</dc:format>
        <dc:type
           rdf:resource="http://purl.org/dc/dcmitype/StillImage" />
      </cc:Work>
    </rdf:RDF>
  </metadata>
  <g
     inkscape:label="Layer 1"
     inkscape:groupmode="layer"
     id="layer1"
     transform="translate(-27.631297,-18.550061)">
    <g
       aria-label="The  Integer    Book"
       id="text2329"
       style="font-size:2.11667px;line-height:1.25;-inkscape-font-specification:'sans-serif, Normal';stroke-width:0.264583">
      <g
         id="g56"
         transform="translate(11.693765,10.125418)">
        <path
           d="m 22.50151,16.215492 c 0.04939,-0.232833 0.155222,-0.486833 0.246945,-0.733778 -0.155223,0.0071 -0.543279,0.02117 -0.945445,0.02117 -0.331612,0 -0.331612,-0.169334 -0.275167,-0.373945 0.162278,-0.613834 0.465667,-1.566334 0.804334,-2.638779 0.211666,0 0.366889,-0.0071 0.472722,-0.0071 0.232834,0 0.345723,0.05644 0.331611,0.324556 -0.03528,0.423333 -0.112889,0.8255 -0.1905,1.284112 0.246945,-0.01411 0.543278,-0.02117 0.797279,-0.0071 0.03528,-0.500945 0.225778,-1.834446 0.289278,-2.300113 -0.81139,0.03528 -3.626558,0.02117 -4.120448,0 -0.09878,0.388056 -0.606778,1.629835 -0.790222,2.102557 0.275167,0.02117 0.550333,0.07761 0.769056,0.148167 0.162278,-0.458611 0.282222,-0.804334 0.493889,-1.220612 0.127,-0.246944 0.261056,-0.331611 0.543278,-0.331611 0.176389,0 0.352778,0 0.536223,0 -0.296334,1.016001 -0.649112,2.102557 -0.87489,2.702279 -0.09878,0.282223 -0.239889,0.317501 -0.465667,0.317501 -0.345722,0 -0.606778,0 -0.726722,-0.02117 -0.04939,0.246945 -0.148167,0.493889 -0.246945,0.733778 0.423334,-0.02117 2.906891,-0.03528 3.351391,0 z"
           style="font-style:italic;font-weight:bold;font-size:7.05556px;font-family:'Vulf Mono';-inkscape-font-specification:'Vulf Mono, Bold Italic'"
           id="path4635" />
        <path
           d="m 28.098223,15.481714 c -0.148167,0 -0.211667,-0.07056 -0.211667,-0.211667 0,-0.465667 0.670278,-1.157112 0.670278,-1.834445 0,-0.522112 -0.324555,-0.762001 -0.818445,-0.762001 -0.578555,0 -1.199445,0.296334 -1.707445,1.178279 h -0.07761 c 0.324555,-0.881945 0.543278,-1.326446 0.543278,-1.799168 0,-0.465667 -0.282223,-0.670278 -0.726723,-0.670278 -0.303389,0 -0.613834,0.0635 -0.980723,0.204611 0.09878,0.183444 0.176389,0.388056 0.254,0.642056 0.141112,-0.07056 0.232834,-0.09878 0.331612,-0.09878 0.119944,0 0.183444,0.0635 0.183444,0.197556 0,0.522111 -0.980722,2.836335 -1.446389,3.84528 0.437444,0.01411 0.733778,0.04233 1.044222,0.08467 0.656168,-1.926168 1.502835,-2.772836 2.046113,-2.772836 0.1905,0 0.310445,0.08467 0.310445,0.289278 0,0.451556 -0.578556,1.100668 -0.578556,1.785057 0,0.500945 0.352778,0.726723 0.804333,0.726723 0.49389,0 0.881945,-0.225778 1.143001,-0.4445 -0.127,-0.218723 -0.211667,-0.43039 -0.282222,-0.68439 -0.176389,0.204611 -0.331612,0.324556 -0.500945,0.324556 z"
           style="font-style:italic;font-weight:bold;font-size:7.05556px;font-family:'Vulf Mono';-inkscape-font-specification:'Vulf Mono, Bold Italic'"
           id="path4637" />
        <path
           d="m 32.206213,13.400324 c 0.409222,0 0.613834,0.134055 0.613834,0.366889 0,0.416278 -0.613834,0.585611 -2.102557,0.663223 0.155222,-0.585612 0.712611,-1.030112 1.488723,-1.030112 z m -0.479778,2.166057 c -0.635001,0 -0.994834,-0.1905 -1.051279,-0.642056 1.961446,0.02822 3.048002,-0.402167 3.048002,-1.270001 0,-0.5715 -0.4445,-1.008945 -1.425223,-1.008945 -1.651001,0 -2.58939,1.044223 -2.58939,2.194279 0,0.881945 0.599722,1.44639 1.848556,1.44639 0.705556,0 1.411112,-0.148167 2.109613,-0.726723 -0.134056,-0.141111 -0.254,-0.296333 -0.437445,-0.564445 -0.409222,0.409223 -1.030112,0.571501 -1.502834,0.571501 z"
           style="font-style:italic;font-weight:bold;font-size:7.05556px;font-family:'Vulf Mono';-inkscape-font-specification:'Vulf Mono, Bold Italic'"
           id="path4639" />
        <path
           d="m 21.605454,23.955442 c 0.169333,-0.649112 0.493889,-1.651001 0.754945,-2.335391 0.105833,-0.261055 0.218722,-0.3175 0.430389,-0.3175 0.451556,0 0.733778,0.0071 0.952501,0.02117 0.0635,-0.246945 0.141111,-0.486834 0.232833,-0.726723 -0.451556,0.03528 -3.175002,0.02117 -3.647725,0 -0.05644,0.232834 -0.141111,0.479778 -0.239889,0.726723 0.176389,-0.0071 0.585612,-0.02117 1.030112,-0.02117 0.254,0 0.268112,0.162278 0.211667,0.366889 -0.169333,0.571501 -0.522111,1.728612 -0.754945,2.342446 -0.09878,0.268111 -0.225778,0.3175 -0.437445,0.3175 -0.451555,0 -0.712611,0 -0.959556,-0.02117 -0.05644,0.232833 -0.141111,0.486833 -0.239889,0.726722 0.458612,-0.02117 3.167947,-0.03528 3.65478,0 0.04939,-0.232833 0.141111,-0.479778 0.239889,-0.726722 -0.232833,0.0071 -0.585611,0.02117 -1.023056,0.02117 -0.246944,0 -0.261056,-0.176389 -0.204611,-0.373944 z"
           style="font-style:italic;font-weight:bold;font-size:7.05556px;font-family:'Vulf Mono';-inkscape-font-specification:'Vulf Mono, Bold Italic'"
           id="path4641" />
        <path
           d="m 25.275999,22.396163 c 0,0.409222 -0.430389,1.439334 -1.008945,2.58939 0.458611,0.02117 0.762,0.04939 1.044223,0.09172 l 0.01411,-0.04939 c 0.649111,-1.883835 1.439334,-2.751669 1.961446,-2.751669 0.176389,0 0.296333,0.07761 0.296333,0.275167 0,0.465667 -0.627945,1.12889 -0.627945,1.82739 0,0.500945 0.352778,0.726723 0.81139,0.726723 0.486833,0 0.881945,-0.225778 1.135945,-0.4445 -0.119945,-0.218723 -0.211667,-0.430389 -0.282223,-0.68439 -0.169333,0.204612 -0.324555,0.324556 -0.500944,0.324556 -0.148167,0 -0.211667,-0.07055 -0.211667,-0.211667 0,-0.479778 0.719667,-1.185334 0.719667,-1.876779 0,-0.515056 -0.3175,-0.747889 -0.804334,-0.747889 -0.557389,0 -1.171223,0.303389 -1.672168,1.19239 h -0.07055 c 0.04939,-0.1905 0.07761,-0.338667 0.07761,-0.465667 0,-0.49389 -0.275167,-0.726723 -0.719667,-0.726723 -0.423334,0 -0.81139,0.1905 -1.227668,0.578556 0.127,0.148167 0.239889,0.331611 0.345723,0.564445 0.254,-0.310445 0.416278,-0.395112 0.557389,-0.395112 0.105833,0 0.162278,0.05645 0.162278,0.183445 z"
           style="font-style:italic;font-weight:bold;font-size:7.05556px;font-family:'Vulf Mono';-inkscape-font-specification:'Vulf Mono, Bold Italic'"
           id="path4643" />
        <path
           d="m 32.777713,20.695773 c -0.359833,0.0635 -0.705556,0.09172 -1.051278,0.09172 -0.127,0.254 -0.254,0.515056 -0.373945,0.776112 -0.613834,-0.0071 -1.12889,-0.01411 -1.298223,-0.02822 -0.03528,0.261055 -0.141111,0.536222 -0.232834,0.818445 0.169334,-0.01411 0.627945,-0.02117 1.178279,-0.02822 -0.303389,0.712612 -0.529167,1.38289 -0.529167,1.876779 0,0.613834 0.345722,0.896056 1.016001,0.903112 0.656167,0.0071 1.361723,-0.268111 2.046112,-1.072445 -0.162278,-0.112889 -0.303389,-0.254 -0.599722,-0.550334 -0.388056,0.529167 -0.740834,0.81139 -1.135946,0.81139 -0.225778,0 -0.338667,-0.112889 -0.338667,-0.352778 0,-0.317501 0.155223,-0.790223 0.529167,-1.615724 0.853723,0 1.679224,0.01411 1.926168,0.02117 0.0635,-0.268111 0.162278,-0.550334 0.254001,-0.811389 -0.246945,0.01411 -1.008946,0.02822 -1.820335,0.02822 0.127,-0.261056 0.275167,-0.550334 0.430389,-0.867834 z"
           style="font-style:italic;font-weight:bold;font-size:7.05556px;font-family:'Vulf Mono';-inkscape-font-specification:'Vulf Mono, Bold Italic'"
           id="path4645" />
        <path
           d="m 37.428981,22.219774 c 0.409222,0 0.613833,0.134056 0.613833,0.366889 0,0.416278 -0.613833,0.585612 -2.102557,0.663223 0.155223,-0.585612 0.712612,-1.030112 1.488724,-1.030112 z m -0.479778,2.166057 c -0.635001,0 -0.994834,-0.1905 -1.051279,-0.642056 1.961446,0.02822 3.048002,-0.402167 3.048002,-1.270001 0,-0.5715 -0.4445,-1.008945 -1.425223,-1.008945 -1.651001,0 -2.589391,1.044223 -2.589391,2.194279 0,0.881945 0.599723,1.44639 1.848557,1.44639 0.705556,0 1.411112,-0.148167 2.109613,-0.726723 -0.134056,-0.141111 -0.254001,-0.296333 -0.437445,-0.564445 -0.409223,0.409223 -1.030112,0.571501 -1.502834,0.571501 z"
           style="font-style:italic;font-weight:bold;font-size:7.05556px;font-family:'Vulf Mono';-inkscape-font-specification:'Vulf Mono, Bold Italic'"
           id="path4647" />
        <path
           d="m 41.494638,25.740498 c -0.05645,0 -0.105834,0 -0.148167,-0.0071 0.04233,-0.07056 0.07055,-0.155222 0.07055,-0.261056 0,-0.261056 -0.1905,-0.451556 -0.536222,-0.451556 -0.402167,0 -0.613834,0.275167 -0.613834,0.62089 0,0.465667 0.381,0.804333 1.262945,0.804333 1.326446,0 1.714501,-0.811389 1.926168,-1.580445 0.303389,-1.079501 0.578556,-2.187224 1.086557,-3.287891 -0.423334,-0.01411 -0.691445,-0.04939 -0.959557,-0.09172 -0.03528,0.09172 -0.07055,0.1905 -0.105833,0.289278 -0.04233,0.119944 -0.08467,0.232833 -0.134056,0.338667 -0.268111,-0.395112 -0.712611,-0.649112 -1.262945,-0.649112 -1.086556,0 -1.869723,1.143001 -1.869723,2.159001 0,0.642056 0.366889,1.037168 1.001889,1.037168 0.557389,0 1.171223,-0.254 1.615723,-0.917223 h 0.07056 c -0.08467,0.3175 -0.162278,0.613834 -0.239889,0.889 -0.218722,0.804334 -0.599723,1.107723 -1.164167,1.107723 z m 0.127,-1.855612 c -0.345723,0 -0.508001,-0.169333 -0.508001,-0.479778 0,-0.550334 0.472723,-1.213556 1.079501,-1.213556 0.338667,0 0.663223,0.09172 0.952501,0.352778 -0.472723,0.959556 -0.966612,1.340556 -1.524001,1.340556 z"
           style="font-style:italic;font-weight:bold;font-size:7.05556px;font-family:'Vulf Mono';-inkscape-font-specification:'Vulf Mono, Bold Italic'"
           id="path4649" />
        <path
           d="m 47.874518,22.219774 c 0.409223,0 0.613834,0.134056 0.613834,0.366889 0,0.416278 -0.613834,0.585612 -2.102557,0.663223 0.155222,-0.585612 0.712612,-1.030112 1.488723,-1.030112 z m -0.479778,2.166057 c -0.635,0 -0.994834,-0.1905 -1.051278,-0.642056 1.961445,0.02822 3.048002,-0.402167 3.048002,-1.270001 0,-0.5715 -0.444501,-1.008945 -1.425224,-1.008945 -1.651001,0 -2.58939,1.044223 -2.58939,2.194279 0,0.881945 0.599723,1.44639 1.848557,1.44639 0.705556,0 1.411112,-0.148167 2.109612,-0.726723 -0.134055,-0.141111 -0.254,-0.296333 -0.437445,-0.564445 -0.409222,0.409223 -1.030111,0.571501 -1.502834,0.571501 z"
           style="font-style:italic;font-weight:bold;font-size:7.05556px;font-family:'Vulf Mono';-inkscape-font-specification:'Vulf Mono, Bold Italic'"
           id="path4651" />
        <path
           d="m 53.330119,25.034942 c 0.04939,-0.254 0.169333,-0.515055 0.275166,-0.776111 -0.148166,0.0071 -0.508,0.02117 -0.881945,0.02117 -0.254,0 -0.282222,-0.169333 -0.211666,-0.366889 0.366889,-0.987778 0.966611,-1.622778 1.587501,-1.622778 0.204611,0 0.373944,0.0635 0.486833,0.211666 -0.03528,-0.0071 -0.07761,-0.0071 -0.119944,-0.0071 -0.381001,0 -0.585612,0.261055 -0.585612,0.564445 0,0.303389 0.1905,0.493889 0.500945,0.493889 0.493889,0 0.740834,-0.515056 0.740834,-1.100668 0,-0.543278 -0.254,-0.994834 -0.853723,-0.994834 -0.627945,0 -1.12889,0.458612 -1.615723,1.481668 h -0.0635 c 0.0635,-0.303389 0.09878,-0.536223 0.09878,-0.684389 0,-0.529167 -0.317501,-0.790223 -0.825501,-0.790223 -0.4445,0 -0.867834,0.204611 -1.333501,0.578556 0.134056,0.148167 0.246945,0.338667 0.373945,0.5715 0.303389,-0.275167 0.522111,-0.402167 0.740834,-0.402167 0.162278,0 0.232833,0.105834 0.232833,0.282223 0,0.246944 -0.141111,0.797278 -0.409222,1.467556 -0.105834,0.261056 -0.204612,0.3175 -0.402167,0.3175 -0.303389,0 -0.536223,-0.02117 -0.649112,-0.02117 -0.04939,0.254 -0.162278,0.515056 -0.268111,0.776111 0.395111,-0.02117 2.751668,-0.02117 3.182058,0 z"
           style="font-style:italic;font-weight:bold;font-size:7.05556px;font-family:'Vulf Mono';-inkscape-font-specification:'Vulf Mono, Bold Italic'"
           id="path4653" />
        <path
           d="m 37.60537,31.307335 c -0.409223,0 -0.68439,-0.0071 -0.945445,-0.01411 0.134055,-0.416278 0.275166,-0.818445 0.409222,-1.164167 0.289278,-0.0071 0.500945,-0.0071 0.853723,-0.0071 0.451556,0 0.677334,0.105834 0.677334,0.465667 0,0.373945 -0.261056,0.719667 -0.994834,0.719667 z m -0.282223,1.841502 c -0.381,0 -0.896056,-0.01411 -1.220612,-0.02117 0.09878,-0.373945 0.211667,-0.74789 0.324556,-1.121834 0.416278,-0.0071 0.754945,-0.01411 0.945445,-0.01411 0.522112,0 0.776112,0.148166 0.776112,0.522111 0,0.458612 -0.303389,0.635001 -0.825501,0.635001 z m 0.05645,0.712611 c 1.0795,0 1.594556,-0.536222 1.594556,-1.312334 0,-0.5715 -0.296333,-0.762001 -0.910167,-0.818445 v -0.04939 c 0.93839,-0.02822 1.375834,-0.423334 1.375834,-1.270001 0,-0.684389 -0.402167,-0.987778 -1.368778,-0.987778 -0.409223,0 -0.804334,0.01411 -1.227668,0.01411 -0.437445,0 -0.874889,-0.0071 -1.220612,-0.01411 -0.05644,0.232833 -0.127,0.472722 -0.232833,0.719667 0.08467,-0.0071 0.261055,-0.0071 0.352778,-0.0071 0.282222,0 0.409222,0.09878 0.331611,0.352778 -0.162278,0.578556 -0.522111,1.721557 -0.754945,2.335391 -0.09172,0.211667 -0.183444,0.303389 -0.458611,0.303389 -0.112889,0 -0.296334,0 -0.395112,-0.0071 -0.05644,0.239889 -0.148166,0.493889 -0.246944,0.733779 0.451556,-0.0071 0.973667,-0.01411 1.516945,-0.01411 0.564445,-0.0071 1.093612,0.02117 1.643946,0.02117 z"
           style="font-style:italic;font-weight:bold;font-size:7.05556px;font-family:'Vulf Mono';-inkscape-font-specification:'Vulf Mono, Bold Italic'"
           id="path4655" />
        <path
           d="m 42.679972,30.29839 c -1.63689,-0.0071 -2.540002,1.121834 -2.540002,2.180168 0,0.860779 0.550334,1.44639 1.686279,1.44639 1.63689,0 2.540002,-1.128889 2.540002,-2.180168 0,-0.881945 -0.550334,-1.453445 -1.686279,-1.44639 z m -0.148167,0.762001 c 0.536222,-0.0071 0.867834,0.239889 0.860778,0.754945 0.0071,0.606778 -0.564445,1.340556 -1.425223,1.347612 -0.536222,0 -0.853723,-0.254001 -0.853723,-0.754945 0,-0.627945 0.55739,-1.347612 1.418168,-1.347612 z"
           style="font-style:italic;font-weight:bold;font-size:7.05556px;font-family:'Vulf Mono';-inkscape-font-specification:'Vulf Mono, Bold Italic'"
           id="path4657" />
        <path
           d="m 47.90274,30.29839 c -1.636889,-0.0071 -2.540001,1.121834 -2.540001,2.180168 0,0.860779 0.550333,1.44639 1.686279,1.44639 1.63689,0 2.540001,-1.128889 2.540001,-2.180168 0,-0.881945 -0.550333,-1.453445 -1.686279,-1.44639 z m -0.148166,0.762001 c 0.536222,-0.0071 0.867834,0.239889 0.860778,0.754945 0.0071,0.606778 -0.564445,1.340556 -1.425223,1.347612 -0.536223,0 -0.853723,-0.254001 -0.853723,-0.754945 0,-0.627945 0.557389,-1.347612 1.418168,-1.347612 z"
           style="font-style:italic;font-weight:bold;font-size:7.05556px;font-family:'Vulf Mono';-inkscape-font-specification:'Vulf Mono, Bold Italic'"
           id="path4659" />
        <path
           d="m 52.617507,29.719834 c 0,-0.479778 -0.289278,-0.6985 -0.733778,-0.6985 -0.303389,0 -0.613834,0.0635 -0.980723,0.204611 0.09878,0.183445 0.176389,0.388056 0.254,0.642056 0.141111,-0.07056 0.232834,-0.09878 0.331611,-0.09878 0.119945,0 0.183445,0.0635 0.183445,0.197556 0,0.522111 -0.980723,2.836335 -1.44639,3.84528 0.437445,0.01411 0.733778,0.04233 1.044223,0.08467 0.148167,-0.472723 0.261056,-0.860778 0.388056,-1.220612 0.1905,-0.04233 0.381,-0.08467 0.564445,-0.134056 0.479778,1.051279 0.839611,1.38289 1.488723,1.38289 0.416278,0 0.783167,-0.162278 1.220612,-0.515056 -0.1905,-0.197555 -0.296334,-0.352778 -0.430389,-0.606778 -0.225778,0.225778 -0.451556,0.345723 -0.677334,0.345723 -0.345723,0 -0.550334,-0.268112 -0.818445,-0.825501 0.987778,-0.338667 1.749779,-0.804334 1.742723,-1.432279 0.0071,-0.345722 -0.197556,-0.585611 -0.613834,-0.585611 -0.451555,0 -0.663222,0.268111 -0.663222,0.578556 0,0.162278 0.05644,0.296333 0.176389,0.395111 -0.381,0.3175 -1.086556,0.5715 -1.749779,0.726723 0.395111,-1.135945 0.719667,-1.76389 0.719667,-2.286003 z"
           style="font-style:italic;font-weight:bold;font-size:7.05556px;font-family:'Vulf Mono';-inkscape-font-specification:'Vulf Mono, Bold Italic'"
           id="path4661" />
      </g>
      <rect
         style="fill:none;fill-rule:evenodd;stroke:#000000;stroke-width:0.623;stroke-miterlimit:4;stroke-dasharray:none;stroke-opacity:1"
         id="rect913"
         width="41.514294"
         height="28.010309"
         x="27.942797"
         y="18.861561"
         ry="4.1263981" />
    </g>
  </g>
</svg>
